<svg width="35" height="35" viewBox="0 0 35 35" fill="none" xmlns="http://www.w3.org/2000/svg">
<path d="M23.3332 14.5833C23.3332 16.1304 22.7186 17.6142 21.6246 18.7081C20.5307 19.8021 19.0469 20.4167 17.4998 20.4167C15.9527 20.4167 14.469 19.8021 13.375 18.7081C12.2811 17.6142 11.6665 16.1304 11.6665 14.5833C11.6665 13.0362 12.2811 11.5525 13.375 10.4585C14.469 9.36458 15.9527 8.75 17.4998 8.75C19.0469 8.75 20.5307 9.36458 21.6246 10.4585C22.7186 11.5525 23.3332 13.0362 23.3332 14.5833Z" fill="black"/>
<path fill-rule="evenodd" clip-rule="evenodd" d="M16.9048 32.0716C9.12682 31.7595 2.9165 25.3545 2.9165 17.5C2.9165 9.44558 9.44546 2.91663 17.4998 2.91663C25.5542 2.91663 32.0832 9.44558 32.0832 17.5C32.0832 25.5543 25.5542 32.0833 17.4998 32.0833H17.3C17.1678 32.0833 17.0361 32.0794 16.9048 32.0716ZM8.14171 26.702C8.03268 26.3889 7.99556 26.0553 8.03313 25.7258C8.07069 25.3964 8.18197 25.0797 8.3587 24.7991C8.53543 24.5186 8.77307 24.2814 9.05399 24.1053C9.33491 23.9292 9.65189 23.8186 9.9814 23.7817C15.666 23.1525 19.3687 23.2093 25.0256 23.7949C25.3555 23.8292 25.6733 23.9384 25.9546 24.1141C26.236 24.2899 26.4736 24.5275 26.6492 24.8089C26.8249 25.0903 26.934 25.4081 26.9683 25.7381C27.0026 26.068 26.9611 26.4015 26.847 26.713C29.2716 24.2601 30.6293 20.9489 30.6248 17.5C30.6248 10.2513 24.7485 4.37496 17.4998 4.37496C10.2512 4.37496 4.37484 10.2513 4.37484 17.5C4.37484 21.0845 5.81202 24.3337 8.14171 26.702Z" fill="black"/>
</svg>
