<svg width="25" height="27" viewBox="0 0 25 27" fill="none" xmlns="http://www.w3.org/2000/svg">
<path d="M24.3942 16.5419L22.4853 14.9149C22.5756 14.3628 22.6222 13.7992 22.6222 13.2355C22.6222 12.6718 22.5756 12.1082 22.4853 11.5561L24.3942 9.92908C24.5382 9.8062 24.6413 9.64253 24.6897 9.45984C24.7381 9.27715 24.7296 9.0841 24.6653 8.90635L24.6391 8.83081C24.1135 7.36652 23.3266 6.0091 22.3162 4.82416L22.2638 4.76314C22.1412 4.61948 21.9778 4.5162 21.7952 4.46693C21.6126 4.41765 21.4193 4.42469 21.2408 4.48712L18.8713 5.32681C17.9969 4.61206 17.0206 4.0484 15.9656 3.65325L15.508 1.1836C15.4735 0.997772 15.383 0.826815 15.2487 0.69344C15.1144 0.560065 14.9426 0.470587 14.756 0.436893L14.6774 0.422365C13.1589 0.149251 11.5618 0.149251 10.0433 0.422365L9.96463 0.436893C9.77809 0.470587 9.60625 0.560065 9.47195 0.69344C9.33764 0.826815 9.24721 0.997772 9.21269 1.1836L8.7522 3.66488C7.70559 4.06012 6.73092 4.62348 5.86686 5.33262L3.4799 4.48712C3.30143 4.4242 3.10799 4.4169 2.92526 4.4662C2.74253 4.51551 2.57918 4.61907 2.45692 4.76314L2.40446 4.82416C1.39529 6.00995 0.608469 7.36713 0.0816115 8.83081L0.0553811 8.90635C-0.0757707 9.26954 0.0320653 9.6763 0.326428 9.92908L2.25873 11.5736C2.16838 12.1198 2.12467 12.6777 2.12467 13.2326C2.12467 13.7905 2.16838 14.3483 2.25873 14.8916L0.326428 16.5361C0.18244 16.659 0.0793861 16.8227 0.0309693 17.0054C-0.0174475 17.1881 -0.0089329 17.3811 0.0553811 17.5589L0.0816115 17.6344C0.609133 19.0988 1.39022 20.4498 2.40446 21.6411L2.45692 21.7021C2.57948 21.8457 2.74284 21.949 2.92546 21.9983C3.10807 22.0476 3.30138 22.0405 3.4799 21.9781L5.86686 21.1326C6.73538 21.8444 7.7059 22.4081 8.7522 22.8003L9.21269 25.2816C9.24721 25.4674 9.33764 25.6384 9.47195 25.7718C9.60625 25.9051 9.77809 25.9946 9.96463 26.0283L10.0433 26.0428C11.5757 26.3174 13.145 26.3174 14.6774 26.0428L14.756 26.0283C14.9426 25.9946 15.1144 25.9051 15.2487 25.7718C15.383 25.6384 15.4735 25.4674 15.508 25.2816L15.9656 22.812C17.0202 22.4179 18.002 21.8523 18.8713 21.1384L21.2408 21.9781C21.4192 22.041 21.6127 22.0483 21.7954 21.999C21.9781 21.9497 22.1415 21.8461 22.2638 21.7021L22.3162 21.6411C23.3305 20.4469 24.1115 19.0988 24.6391 17.6344L24.6653 17.5589C24.7964 17.2015 24.6886 16.7947 24.3942 16.5419ZM20.416 11.899C20.4888 12.3377 20.5267 12.7881 20.5267 13.2384C20.5267 13.6888 20.4888 14.1391 20.416 14.5778L20.2236 15.7429L22.4007 17.5995C22.0707 18.3575 21.6541 19.0751 21.1592 19.738L18.4545 18.7821L17.5394 19.5317C16.8428 20.1011 16.0676 20.5486 15.2282 20.8624L14.1178 21.2779L13.5961 24.0962C12.7729 24.1892 11.9419 24.1892 11.1188 24.0962L10.5971 21.2721L9.4954 20.8508C8.66477 20.537 7.89243 20.0895 7.2017 19.523L6.28655 18.7704L3.56442 19.7351C3.06896 19.0697 2.6551 18.3521 2.32285 17.5966L4.52329 15.7226L4.33385 14.5604C4.2639 14.1275 4.22601 13.68 4.22601 13.2384C4.22601 12.7939 4.26098 12.3493 4.33385 11.9164L4.52329 10.7542L2.32285 8.8802C2.65219 8.12187 3.06896 7.40713 3.56442 6.74177L6.28655 7.70639L7.2017 6.95387C7.89243 6.38731 8.66477 5.93986 9.4954 5.62607L10.6 5.21059L11.1217 2.38647C11.9406 2.29349 12.7771 2.29349 13.599 2.38647L14.1207 5.20478L15.2311 5.62026C16.0676 5.93405 16.8457 6.38149 17.5423 6.95097L18.4574 7.70058L21.1621 6.74468C21.6575 7.41003 22.0714 8.12769 22.4037 8.88311L20.2265 10.7397L20.416 11.899ZM12.3632 7.83423C9.53037 7.83423 7.23376 10.1237 7.23376 12.9479C7.23376 15.772 9.53037 18.0615 12.3632 18.0615C15.1961 18.0615 17.4927 15.772 17.4927 12.9479C17.4927 10.1237 15.1961 7.83423 12.3632 7.83423ZM14.6715 15.249C14.3688 15.5517 14.009 15.7917 13.6128 15.9553C13.2167 16.1188 12.792 16.2027 12.3632 16.202C11.4918 16.202 10.6728 15.8621 10.055 15.249C9.75136 14.9472 9.51059 14.5885 9.34653 14.1936C9.18247 13.7987 9.09836 13.3753 9.09903 12.9479C9.09903 12.0791 9.44002 11.2627 10.055 10.6467C10.6728 10.0308 11.4918 9.69374 12.3632 9.69374C13.2347 9.69374 14.0537 10.0308 14.6715 10.6467C14.9751 10.9485 15.2159 11.3072 15.38 11.7021C15.544 12.0971 15.6281 12.5204 15.6275 12.9479C15.6275 13.8166 15.2865 14.633 14.6715 15.249Z" fill="black"/>
</svg>
