<svg width="22" height="17" viewBox="0 0 22 17" fill="none" xmlns="http://www.w3.org/2000/svg">
<path d="M0 16.1803V13.377C0 12.8096 0.146 12.2883 0.438 11.8131C0.73 11.3378 1.11733 10.9747 1.6 10.7238C2.63333 10.2065 3.68333 9.81869 4.75 9.56038C5.81667 9.30207 6.9 9.17258 8 9.17191C9.1 9.17125 10.1833 9.30074 11.25 9.56038C12.3167 9.82003 13.3667 10.2078 14.4 10.7238C14.8833 10.9741 15.271 11.3372 15.563 11.8131C15.855 12.289 16.0007 12.8103 16 13.377V16.1803H0ZM18 16.1803V13.1767C18 12.4425 17.796 11.7373 17.388 11.0612C16.98 10.385 16.4007 9.80534 15.65 9.32209C16.5 9.42221 17.3 9.59342 18.05 9.83571C18.8 10.078 19.5 10.374 20.15 10.7238C20.75 11.0575 21.2083 11.4286 21.525 11.8371C21.8417 12.2456 22 12.6921 22 13.1767V16.1803H18ZM8 8.17071C6.9 8.17071 5.95833 7.77857 5.175 6.9943C4.39167 6.21003 4 5.26723 4 4.1659C4 3.06458 4.39167 2.12178 5.175 1.33751C5.95833 0.553235 6.9 0.161097 8 0.161097C9.1 0.161097 10.0417 0.553235 10.825 1.33751C11.6083 2.12178 12 3.06458 12 4.1659C12 5.26723 11.6083 6.21003 10.825 6.9943C10.0417 7.77857 9.1 8.17071 8 8.17071ZM18 4.1659C18 5.26723 17.6083 6.21003 16.825 6.9943C16.0417 7.77857 15.1 8.17071 14 8.17071C13.8167 8.17071 13.5833 8.15002 13.3 8.10864C13.0167 8.06725 12.7833 8.0212 12.6 7.97047C13.05 7.4365 13.396 6.84412 13.638 6.19334C13.88 5.54256 14.0007 4.86675 14 4.1659C13.9993 3.46506 13.8787 2.78925 13.638 2.13847C13.3973 1.48769 13.0513 0.895312 12.6 0.361338C12.8333 0.277904 13.0667 0.223506 13.3 0.198142C13.5333 0.172778 13.7667 0.16043 14 0.161097C15.1 0.161097 16.0417 0.553235 16.825 1.33751C17.6083 2.12178 18 3.06458 18 4.1659Z" fill="white"/>
</svg>
