<svg width="60" height="61" viewBox="0 0 60 61" fill="none" xmlns="http://www.w3.org/2000/svg">
<path d="M54.375 61H5.625C2.5125 61 0 58.32 0 55V7C0 3.68 2.5125 1 5.625 1H54.375C57.4875 1 60 3.68 60 7V55C60 58.32 57.4875 61 54.375 61ZM5.625 5C4.575 5 3.75 5.88 3.75 7V55C3.75 56.12 4.575 57 5.625 57H54.375C55.425 57 56.25 56.12 56.25 55V7C56.25 5.88 55.425 5 54.375 5H5.625Z" fill="black"/>
<path d="M16.875 14.6667C15.825 14.6667 15 13.86 15 12.8333V1.83333C15 0.806667 15.825 0 16.875 0C17.925 0 18.75 0.806667 18.75 1.83333V12.8333C18.75 13.86 17.925 14.6667 16.875 14.6667ZM43.125 14.6667C42.075 14.6667 41.25 13.86 41.25 12.8333V1.83333C41.25 0.806667 42.075 0 43.125 0C44.175 0 45 0.806667 45 1.83333V12.8333C45 13.86 44.175 14.6667 43.125 14.6667ZM58.125 22H1.875C0.825 22 0 21.1933 0 20.1667C0 19.14 0.825 18.3333 1.875 18.3333H58.125C59.175 18.3333 60 19.14 60 20.1667C60 21.1933 59.175 22 58.125 22Z" fill="black"/>
</svg>
