<svg width="124" height="124" viewBox="0 0 124 124" fill="none" xmlns="http://www.w3.org/2000/svg">
<g clip-path="url(#clip0_953_5939)">
<path fill-rule="evenodd" clip-rule="evenodd" d="M62 62C71.6772 62 80.445 65.2033 86.8775 69.6828C92.9897 73.9453 98.1667 80.2797 98.1667 87.0945C98.1667 90.8352 96.5702 93.9352 94.054 96.2395C91.6877 98.4147 88.598 99.8252 85.4153 100.786C79.0552 102.713 70.68 103.333 62 103.333C53.32 103.333 44.9448 102.713 38.5847 100.786C35.402 99.8252 32.3123 98.4147 29.9408 96.2395C27.435 93.9403 25.8333 90.8403 25.8333 87.0997C25.8333 80.2848 31.0103 73.9505 37.1225 69.688C43.555 65.2033 52.3228 62 62 62ZM62 72.3333C54.56 72.3333 47.8278 74.8133 43.0383 78.1562C37.9285 81.7212 36.1667 85.3482 36.1667 87.0945C36.1667 88.6652 37.9853 89.6468 39.6387 90.2668L40.6978 90.6285L41.5762 90.8972C46.4328 92.3645 53.5628 93 62 93C69.7913 93 76.4615 92.4575 81.2613 91.2227L82.832 90.7732L83.8137 90.4632C85.5858 89.8587 87.8333 88.8408 87.8333 87.0945C87.8333 85.3482 86.0715 81.7212 80.9617 78.1562C76.1773 74.8185 69.44 72.3333 62 72.3333ZM98.1667 67.1667C103.561 67.1667 108.459 68.9492 112.081 71.4705C115.387 73.78 118.833 77.6188 118.833 82.2998C118.833 89.1973 112.132 91.667 106.108 92.5298L104.558 92.721L103.065 92.8502L102.352 92.8915C102.982 91.109 103.333 89.1715 103.333 87.0945C103.326 85.5169 103.142 83.9876 102.781 82.5065C104.775 82.3515 106.413 82.0932 107.632 81.7263C108.169 81.561 107.684 81.0547 107.115 80.6155L106.562 80.2125L106.17 79.949C104.619 78.8905 102.87 78.1559 101.029 77.7893C99.0657 73.8627 96.0483 70.463 92.8347 67.7505C94.5857 67.3637 96.3735 67.1679 98.1667 67.1667ZM25.8333 67.1667C27.683 67.1736 29.4603 67.3682 31.1653 67.7505C27.9517 70.463 24.9343 73.8627 22.971 77.7893C21.1295 78.1559 19.381 78.8905 17.8302 79.949L17.1688 80.4037C16.5127 80.879 15.7428 81.5403 16.368 81.7263C17.5873 82.0932 19.2252 82.3567 21.2247 82.5065C20.8527 83.9911 20.6667 85.5204 20.6667 87.0945C20.6667 89.1715 21.018 91.109 21.6483 92.8915L20.2017 92.7882L18.6723 92.6332C12.462 91.8737 5.16667 89.497 5.16667 82.2998C5.16667 77.624 8.60767 73.78 11.9195 71.4705C16.0165 68.664 20.8672 67.1636 25.8333 67.1667ZM95.5833 36.1667C99.009 36.1667 102.294 37.5275 104.717 39.9499C107.139 42.3722 108.5 45.6576 108.5 49.0833C108.5 52.509 107.139 55.7944 104.717 58.2168C102.294 60.6391 99.009 62 95.5833 62C92.1576 62 88.8722 60.6391 86.4499 58.2168C84.0275 55.7944 82.6667 52.509 82.6667 49.0833C82.6667 45.6576 84.0275 42.3722 86.4499 39.9499C88.8722 37.5275 92.1576 36.1667 95.5833 36.1667ZM28.4167 36.1667C31.8424 36.1667 35.1278 37.5275 37.5501 39.9499C39.9725 42.3722 41.3333 45.6576 41.3333 49.0833C41.3333 52.509 39.9725 55.7944 37.5501 58.2168C35.1278 60.6391 31.8424 62 28.4167 62C24.991 62 21.7056 60.6391 19.2832 58.2168C16.8609 55.7944 15.5 52.509 15.5 49.0833C15.5 45.6576 16.8609 42.3722 19.2832 39.9499C21.7056 37.5275 24.991 36.1667 28.4167 36.1667ZM62 15.5C67.4811 15.5 72.7378 17.6774 76.6135 21.5531C80.4893 25.4289 82.6667 30.6855 82.6667 36.1667C82.6667 41.6478 80.4893 46.9045 76.6135 50.7802C72.7378 54.656 67.4811 56.8333 62 56.8333C56.5189 56.8333 51.2622 54.656 47.3865 50.7802C43.5107 46.9045 41.3333 41.6478 41.3333 36.1667C41.3333 30.6855 43.5107 25.4289 47.3865 21.5531C51.2622 17.6774 56.5189 15.5 62 15.5ZM95.5833 46.5C94.8982 46.5 94.2411 46.7722 93.7566 47.2566C93.2722 47.7411 93 48.3982 93 49.0833C93 49.7685 93.2722 50.4256 93.7566 50.91C94.2411 51.3945 94.8982 51.6667 95.5833 51.6667C96.2685 51.6667 96.9256 51.3945 97.41 50.91C97.8945 50.4256 98.1667 49.7685 98.1667 49.0833C98.1667 48.3982 97.8945 47.7411 97.41 47.2566C96.9256 46.7722 96.2685 46.5 95.5833 46.5ZM28.4167 46.5C27.7315 46.5 27.0744 46.7722 26.59 47.2566C26.1055 47.7411 25.8333 48.3982 25.8333 49.0833C25.8333 49.7685 26.1055 50.4256 26.59 50.91C27.0744 51.3945 27.7315 51.6667 28.4167 51.6667C29.1018 51.6667 29.7589 51.3945 30.2434 50.91C30.7278 50.4256 31 49.7685 31 49.0833C31 48.3982 30.7278 47.7411 30.2434 47.2566C29.7589 46.7722 29.1018 46.5 28.4167 46.5ZM62 25.8333C59.2594 25.8333 56.6311 26.922 54.6932 28.8599C52.7554 30.7978 51.6667 33.4261 51.6667 36.1667C51.6667 38.9072 52.7554 41.5356 54.6932 43.4734C56.6311 45.4113 59.2594 46.5 62 46.5C64.7406 46.5 67.3689 45.4113 69.3068 43.4734C71.2446 41.5356 72.3333 38.9072 72.3333 36.1667C72.3333 33.4261 71.2446 30.7978 69.3068 28.8599C67.3689 26.922 64.7406 25.8333 62 25.8333Z" fill="black"/>
</g>
<defs>
<clipPath id="clip0_953_5939">
<rect width="124" height="124" fill="white"/>
</clipPath>
</defs>
</svg>