<svg width="124" height="124" viewBox="0 0 124 124" fill="none" xmlns="http://www.w3.org/2000/svg">
<g clip-path="url(#clip0_527_359)">
<path d="M85.25 15.5C76.26 15.5 67.6317 19.685 62 26.2983C56.3684 19.685 47.74 15.5 38.75 15.5C22.8367 15.5 10.3334 28.0033 10.3334 43.9167C10.3334 63.4467 27.9 79.36 54.5084 103.54L62 110.308L69.4917 103.488C96.1 79.36 113.667 63.4467 113.667 43.9167C113.667 28.0033 101.163 15.5 85.25 15.5ZM62.5167 95.8417L62 96.3583L61.4834 95.8417C36.89 73.5733 20.6667 58.8483 20.6667 43.9167C20.6667 33.5833 28.4167 25.8333 38.75 25.8333C46.7067 25.8333 54.4567 30.9483 57.195 38.0267H66.8567C69.5434 30.9483 77.2934 25.8333 85.25 25.8333C95.5834 25.8333 103.333 33.5833 103.333 43.9167C103.333 58.8483 87.11 73.5733 62.5167 95.8417Z" fill="black"/>
</g>
<defs>
<clipPath id="clip0_527_359">
<rect width="124" height="124" fill="white"/>
</clipPath>
</defs>
</svg>
