<svg width="124" height="124" viewBox="0 0 124 124" fill="none" xmlns="http://www.w3.org/2000/svg">
<g clip-path="url(#clip0_494_117)">
<path d="M56.8334 93H67.1667V82.6666H56.8334V93ZM62 10.3333C33.48 10.3333 10.3334 33.48 10.3334 62C10.3334 90.52 33.48 113.667 62 113.667C90.52 113.667 113.667 90.52 113.667 62C113.667 33.48 90.52 10.3333 62 10.3333ZM62 103.333C39.215 103.333 20.6667 84.785 20.6667 62C20.6667 39.215 39.215 20.6666 62 20.6666C84.785 20.6666 103.333 39.215 103.333 62C103.333 84.785 84.785 103.333 62 103.333ZM62 31C50.5817 31 41.3334 40.2483 41.3334 51.6666H51.6667C51.6667 45.9833 56.3167 41.3333 62 41.3333C67.6834 41.3333 72.3334 45.9833 72.3334 51.6666C72.3334 62 56.8334 60.7083 56.8334 77.5H67.1667C67.1667 65.875 82.6667 64.5833 82.6667 51.6666C82.6667 40.2483 73.4184 31 62 31Z" fill="black"/>
</g>
<defs>
<clipPath id="clip0_494_117">
<rect width="124" height="124" fill="white"/>
</clipPath>
</defs>
</svg>
