<svg width="124" height="124" viewBox="0 0 124 124" fill="none" xmlns="http://www.w3.org/2000/svg">
<g clip-path="url(#clip0_494_233)">
<path d="M62 30.4834C67.9934 30.4834 72.85 35.34 72.85 41.3334C72.85 47.3267 67.9934 52.1834 62 52.1834C56.0067 52.1834 51.15 47.3267 51.15 41.3334C51.15 35.34 56.0067 30.4834 62 30.4834ZM62 76.9834C77.345 76.9834 93.5167 84.5267 93.5167 87.8334V93.5167H30.4834V87.8334C30.4834 84.5267 46.655 76.9834 62 76.9834ZM62 20.6667C50.5817 20.6667 41.3334 29.915 41.3334 41.3334C41.3334 52.7517 50.5817 62 62 62C73.4184 62 82.6667 52.7517 82.6667 41.3334C82.6667 29.915 73.4184 20.6667 62 20.6667ZM62 67.1667C48.205 67.1667 20.6667 74.09 20.6667 87.8334V103.333H103.333V87.8334C103.333 74.09 75.795 67.1667 62 67.1667Z" fill="black"/>
</g>
<defs>
<clipPath id="clip0_494_233">
<rect width="124" height="124" fill="white"/>
</clipPath>
</defs>
</svg>
