<svg width="124" height="124" viewBox="0 0 124 124" fill="none" xmlns="http://www.w3.org/2000/svg">
<g clip-path="url(#clip0_494_252)">
<path d="M46.5 71.0416C34.41 71.0416 10.3333 77.0867 10.3333 89.125V98.1666H82.6666V89.125C82.6666 77.0867 58.59 71.0416 46.5 71.0416ZM22.4233 87.8333C26.7633 84.8367 37.2516 81.375 46.5 81.375C55.7483 81.375 66.2366 84.8367 70.5766 87.8333H22.4233ZM46.5 62C56.4716 62 64.5833 53.8883 64.5833 43.9166C64.5833 33.945 56.4716 25.8333 46.5 25.8333C36.5283 25.8333 28.4166 33.945 28.4166 43.9166C28.4166 53.8883 36.5283 62 46.5 62ZM46.5 36.1666C50.7883 36.1666 54.25 39.6283 54.25 43.9166C54.25 48.205 50.7883 51.6666 46.5 51.6666C42.2116 51.6666 38.75 48.205 38.75 43.9166C38.75 39.6283 42.2116 36.1666 46.5 36.1666ZM82.8733 71.3517C88.8667 75.6917 93 81.4783 93 89.125V98.1666H113.667V89.125C113.667 78.6883 95.5833 72.7467 82.8733 71.3517ZM77.5 62C87.4716 62 95.5833 53.8883 95.5833 43.9166C95.5833 33.945 87.4716 25.8333 77.5 25.8333C74.71 25.8333 72.1267 26.505 69.75 27.6416C73.005 32.24 74.9166 37.8716 74.9166 43.9166C74.9166 49.9616 73.005 55.5933 69.75 60.1916C72.1267 61.3283 74.71 62 77.5 62Z" fill="black"/>
</g>
<defs>
<clipPath id="clip0_494_252">
<rect width="124" height="124" fill="white"/>
</clipPath>
</defs>
</svg>
