<svg width="124" height="124" viewBox="0 0 124 124" fill="none" xmlns="http://www.w3.org/2000/svg">
<g clip-path="url(#clip0_495_341)">
<path d="M80.0833 72.3333H76.0017L74.555 70.9383C79.6183 65.0483 82.6667 57.4017 82.6667 49.0833C82.6667 30.535 67.6317 15.5 49.0833 15.5C30.535 15.5 15.5 30.535 15.5 49.0833C15.5 67.6317 30.535 82.6667 49.0833 82.6667C57.4017 82.6667 65.0483 79.6183 70.9383 74.555L72.3333 76.0017V80.0833L98.1667 105.865L105.865 98.1667L80.0833 72.3333ZM49.0833 72.3333C36.2183 72.3333 25.8333 61.9483 25.8333 49.0833C25.8333 36.2183 36.2183 25.8333 49.0833 25.8333C61.9483 25.8333 72.3333 36.2183 72.3333 49.0833C72.3333 61.9483 61.9483 72.3333 49.0833 72.3333Z" fill="black"/>
</g>
<defs>
<clipPath id="clip0_495_341">
<rect width="124" height="124" fill="white"/>
</clipPath>
</defs>
</svg>
