<svg width="124" height="124" viewBox="0 0 124 124" fill="none" xmlns="http://www.w3.org/2000/svg">
<path d="M102.817 65.41C101.988 64.4671 101.532 63.255 101.532 62C101.532 60.745 101.988 59.5328 102.817 58.59L109.43 51.15C110.159 50.3371 110.611 49.3143 110.723 48.2283C110.834 47.1423 110.599 46.0489 110.05 45.105L99.7167 27.2283C99.1737 26.2855 98.3469 25.5382 97.3542 25.0929C96.3615 24.6475 95.2536 24.527 94.1883 24.7483L84.475 26.7117C83.239 26.967 81.9523 26.7612 80.8577 26.133C79.7631 25.5048 78.9363 24.4977 78.5333 23.3017L75.3817 13.8467C75.035 12.8204 74.3747 11.9291 73.4939 11.2987C72.6131 10.6682 71.5565 10.3305 70.4733 10.3333H49.8067C48.68 10.2745 47.565 10.5861 46.6321 11.2205C45.6991 11.8549 44.9995 12.7773 44.64 13.8467L41.7467 23.3017C41.3437 24.4977 40.5168 25.5048 39.4222 26.133C38.3276 26.7612 37.0409 26.967 35.805 26.7117L25.8333 24.7483C24.8235 24.6056 23.794 24.765 22.8746 25.2063C21.9552 25.6476 21.187 26.3512 20.6667 27.2283L10.3333 45.105C9.77099 46.0383 9.51814 47.1256 9.61094 48.2113C9.70373 49.297 10.1374 50.3256 10.85 51.15L17.4117 58.59C18.24 59.5328 18.6968 60.745 18.6968 62C18.6968 63.255 18.24 64.4671 17.4117 65.41L10.85 72.85C10.1374 73.6744 9.70373 74.703 9.61094 75.7887C9.51814 76.8744 9.77099 77.9616 10.3333 78.895L20.6667 96.7717C21.2097 97.7145 22.0364 98.4618 23.0291 98.9071C24.0218 99.3524 25.1298 99.473 26.195 99.2517L35.9083 97.2883C37.1443 97.0329 38.431 97.2388 39.5256 97.867C40.6202 98.4952 41.447 99.5023 41.85 100.698L45.0017 110.153C45.3612 111.223 46.0608 112.145 46.9937 112.779C47.9267 113.414 49.0416 113.725 50.1683 113.667H70.835C71.9181 113.669 72.9748 113.332 73.8556 112.701C74.7364 112.071 75.3967 111.18 75.7433 110.153L78.895 100.698C79.298 99.5023 80.1248 98.4952 81.2194 97.867C82.314 97.2388 83.6007 97.0329 84.8367 97.2883L94.55 99.2517C95.6152 99.473 96.7232 99.3524 97.7159 98.9071C98.7085 98.4618 99.5353 97.7145 100.078 96.7717L110.412 78.895C110.96 77.9511 111.196 76.8577 111.084 75.7717C110.973 74.6857 110.52 73.6629 109.792 72.85L102.817 65.41ZM95.1183 72.3333L99.2517 76.9833L92.6383 88.4533L86.5417 87.2133C82.8205 86.4527 78.9496 87.0848 75.6637 88.9896C72.3779 90.8945 69.9057 93.9395 68.7167 97.5467L66.7533 103.333H53.5267L51.6667 97.4433C50.4776 93.8362 48.0055 90.7912 44.7196 88.8863C41.4337 86.9814 37.5628 86.3493 33.8417 87.11L27.745 88.35L21.0283 76.9317L25.1617 72.2817C27.7034 69.4399 29.1086 65.761 29.1086 61.9483C29.1086 58.1357 27.7034 54.4568 25.1617 51.615L21.0283 46.965L27.6417 35.5983L33.7383 36.8383C37.4595 37.599 41.3304 36.9669 44.6162 35.062C47.9021 33.1572 50.3742 30.1121 51.5633 26.505L53.5267 20.6667H66.7533L68.7167 26.5567C69.9057 30.1638 72.3779 33.2088 75.6637 35.1137C78.9496 37.0185 82.8205 37.6506 86.5417 36.89L92.6383 35.65L99.2517 47.12L95.1183 51.77C92.6051 54.6053 91.2173 58.2628 91.2173 62.0517C91.2173 65.8405 92.6051 69.4981 95.1183 72.3333ZM60.14 41.3333C56.0525 41.3333 52.0568 42.5454 48.6582 44.8163C45.2596 47.0872 42.6107 50.3149 41.0465 54.0912C39.4823 57.8675 39.073 62.0229 39.8704 66.0319C40.6679 70.0408 42.6362 73.7232 45.5265 76.6135C48.4167 79.5038 52.0992 81.4721 56.1081 82.2696C60.1171 83.067 64.2724 82.6577 68.0488 81.0935C71.8251 79.5293 75.0528 76.8804 77.3237 73.4818C79.5946 70.0832 80.8067 66.0875 80.8067 62C80.8067 56.5188 78.6293 51.2622 74.7535 47.3864C70.8778 43.5107 65.6211 41.3333 60.14 41.3333ZM60.14 72.3333C58.0963 72.3333 56.0984 71.7273 54.3991 70.5918C52.6998 69.4564 51.3753 67.8426 50.5932 65.9544C49.8111 64.0662 49.6065 61.9885 50.0052 59.9841C50.4039 57.9796 51.3881 56.1384 52.8332 54.6932C54.2784 53.2481 56.1196 52.2639 58.1241 51.8652C60.1285 51.4665 62.2062 51.6711 64.0944 52.4532C65.9826 53.2353 67.5964 54.5598 68.7318 56.2591C69.8673 57.9584 70.4733 59.9562 70.4733 62C70.4733 64.7406 69.3846 67.3689 67.4468 69.3068C65.5089 71.2446 62.8806 72.3333 60.14 72.3333Z" fill="black"/>
</svg>
